<svg width="54" height="54" viewBox="0 0 54 54" fill="none" xmlns="http://www.w3.org/2000/svg">
<path d="M27 9.28125C23.4956 9.28125 20.0698 10.3204 17.156 12.2674C14.2422 14.2144 11.9711 16.9817 10.63 20.2193C9.28893 23.457 8.93804 27.0197 9.62172 30.4568C10.3054 33.8939 11.9929 37.051 14.471 39.5291C16.949 42.0071 20.1061 43.6946 23.5433 44.3783C26.9804 45.062 30.543 44.7111 33.7807 43.37C37.0184 42.0289 39.7856 39.7578 41.7326 36.844C43.6796 33.9302 44.7188 30.5044 44.7188 27C44.7138 22.3022 42.8455 17.7982 39.5236 14.4764C36.2018 11.1545 31.6978 9.28616 27 9.28125ZM35.0663 33.1088C34.9092 33.3077 34.7093 33.4687 34.4814 33.5797C34.2535 33.6908 34.0035 33.749 33.75 33.75C33.3685 33.7531 32.998 33.6216 32.7038 33.3788L25.9538 28.3163C25.7549 28.1591 25.594 27.9592 25.4829 27.7313C25.3719 27.5034 25.3137 27.2535 25.3125 27V15.1875C25.3125 14.7399 25.4903 14.3107 25.8068 13.9943C26.1232 13.6778 26.5525 13.5 27 13.5C27.4476 13.5 27.8768 13.6778 28.1933 13.9943C28.5097 14.3107 28.6875 14.7399 28.6875 15.1875V26.19L34.7963 30.7463C34.9719 30.8816 35.1185 31.0509 35.2275 31.244C35.3365 31.4371 35.4056 31.6501 35.4308 31.8704C35.456 32.0907 35.4367 32.3138 35.3741 32.5265C35.3114 32.7392 35.2068 32.9372 35.0663 33.1088Z" fill="url(#paint0_linear_2001_46)"/>
<path d="M27 1.6875C21.9937 1.6875 17.0998 3.17205 12.9371 5.95343C8.77452 8.7348 5.53015 12.6881 3.61431 17.3133C1.69847 21.9386 1.1972 27.0281 2.17388 31.9382C3.15057 36.8484 5.56135 41.3586 9.10137 44.8986C12.6414 48.4387 17.1516 50.8494 22.0618 51.8261C26.9719 52.8028 32.0614 52.3015 36.6867 50.3857C41.3119 48.4699 45.2652 45.2255 48.0466 41.0629C50.828 36.9003 52.3125 32.0063 52.3125 27C52.3045 20.2892 49.6351 13.8555 44.8898 9.11024C40.1445 4.36497 33.7108 1.69554 27 1.6875ZM27 48.2068C22.8057 48.2068 18.7056 46.9631 15.2181 44.6328C11.7307 42.3026 9.01257 38.9905 7.40747 35.1155C5.80238 31.2405 5.38241 26.9765 6.20068 22.8628C7.01895 18.749 9.0387 14.9703 12.0045 12.0045C14.9704 9.03869 18.7491 7.01894 22.8628 6.20067C26.9765 5.3824 31.2405 5.80237 35.1155 7.40746C38.9906 9.01255 42.3026 11.7307 44.6328 15.2181C46.9631 18.7056 48.2068 22.8057 48.2068 27C48.2015 32.6228 45.9655 38.0137 41.9896 41.9896C38.0137 45.9654 32.6228 48.2015 27 48.2068Z" fill="url(#paint1_linear_2001_46)"/>
<defs>
<linearGradient id="paint0_linear_2001_46" x1="27" y1="9.28125" x2="27" y2="44.7188" gradientUnits="userSpaceOnUse">
<stop stop-color="#E60F71"/>
<stop offset="1" stop-color="#4B38DF"/>
</linearGradient>
<linearGradient id="paint1_linear_2001_46" x1="27" y1="1.6875" x2="27" y2="52.3125" gradientUnits="userSpaceOnUse">
<stop stop-color="#E60F71"/>
<stop offset="1" stop-color="#4B38DF"/>
</linearGradient>
</defs>
</svg>
