<svg width="54" height="54" viewBox="0 0 54 54" fill="none" xmlns="http://www.w3.org/2000/svg">
<path d="M40.1539 0.0769043H13.8462C12.8265 0.0781765 11.849 0.483803 11.128 1.20482C10.4069 1.92584 10.0013 2.90338 10 3.92305V27.4519C11.1827 27.4423 18 27.4596 19.3462 27.4519L22.0866 24.7884L20.7404 19.1634L18.5 15.6634C18.4312 15.5574 18.384 15.4388 18.361 15.3144C18.338 15.1901 18.3397 15.0625 18.366 14.9388C18.3924 14.8152 18.4428 14.6979 18.5145 14.5937C18.5861 14.4895 18.6776 14.4005 18.7837 14.3317C18.8897 14.2629 19.0083 14.2156 19.1327 14.1926C19.257 14.1696 19.3846 14.1714 19.5083 14.1977C19.632 14.2241 19.7492 14.2745 19.8534 14.3461C19.9576 14.4178 20.0466 14.5093 20.1154 14.6153L22.3366 18.0769L26.7308 20.798L29.2981 19.1634L28.4712 14.1538L20.2404 7.7692H23.375L28.8846 12.0384L30.3558 7.7692H32.3942L30.3462 13.7019L31.2981 19.4038L32.7596 23.4519L35.2596 22.423L37.1923 17.6153C37.2917 17.3836 37.4779 17.2001 37.711 17.104C37.944 17.0078 38.2055 17.0068 38.4393 17.1011C38.6731 17.1954 38.8607 17.3775 38.9619 17.6084C39.0631 17.8393 39.0699 18.1007 38.9808 18.3365C38.9808 18.3461 36.9452 23.3653 36.9519 23.375L36.3942 29.2692C37.7212 30.5211 42.7452 35.2788 44 36.4615V3.92305C43.9987 2.90338 43.5931 1.92584 42.8721 1.20482C42.1511 0.483803 41.1735 0.0781765 40.1539 0.0769043ZM11.9231 5.84613V3.92305C11.9246 3.41349 12.1277 2.92523 12.4881 2.56492C12.8484 2.2046 13.3366 2.0015 13.8462 1.99998H40.1539C40.6634 2.0015 41.1517 2.2046 41.512 2.56492C41.8723 2.92523 42.0754 3.41349 42.0769 3.92305V5.84613H11.9231Z" fill="url(#paint0_linear_2001_83)"/>
<path d="M34.9712 30.5673L31.3942 30.2211L31.7885 33.4615C31.7985 33.5252 31.805 33.5894 31.8077 33.6538C31.8577 33.7202 31.1837 35.9259 31.1539 36.0577L35.2981 37.6442C35.505 37.7259 35.6771 37.8767 35.7853 38.0711C35.8934 38.2655 35.9308 38.4913 35.8911 38.7101C35.8514 38.929 35.7371 39.1273 35.5676 39.2713C35.3981 39.4153 35.1839 39.4961 34.9615 39.5C34.9289 39.6202 30.7471 37.9365 30.6154 37.9134L29.8462 40.5865C29.8108 40.7077 29.7519 40.8208 29.6729 40.9193C29.5938 41.0177 29.4961 41.0996 29.3854 41.1604C29.1618 41.283 28.8987 41.3118 28.6539 41.2404C28.409 41.1689 28.2026 41.0032 28.08 40.7796C27.9574 40.556 27.9286 40.2929 28 40.048L29.7212 34.0961L26.1731 31.9327L21.4039 34.1057L20.6731 37.1634C20.6099 37.4073 20.4538 37.6167 20.2381 37.7468C20.0224 37.8769 19.7644 37.9173 19.5192 37.8595C19.2741 37.8017 19.0613 37.6502 18.9265 37.4374C18.7917 37.2246 18.7456 36.9675 18.7981 36.7211L19.5962 33.4038L18.9231 29.375C17.5702 29.3779 11.2404 29.3731 10 29.375V50.0769C10.0013 51.0965 10.4069 52.0741 11.128 52.7951C11.849 53.5161 12.8265 53.9218 13.8462 53.923H40.1539C41.1735 53.9218 42.1511 53.5161 42.8721 52.7951C43.5931 52.0741 43.9987 51.0965 44 50.0769V39.0961C42.7683 37.9375 36.3442 31.8596 34.9712 30.5673ZM40.1539 52H13.8462C13.3366 51.9984 12.8484 51.7953 12.4881 51.435C12.1277 51.0747 11.9246 50.5864 11.9231 50.0769V46.7019H42.0769V50.0769C42.0754 50.5864 41.8723 51.0747 41.512 51.435C41.1517 51.7953 40.6634 51.9984 40.1539 52Z" fill="url(#paint1_linear_2001_83)"/>
<path d="M28.9231 48.3894H25.077C24.8219 48.3894 24.5774 48.4907 24.397 48.671C24.2167 48.8513 24.1154 49.0959 24.1154 49.3509C24.1154 49.6059 24.2167 49.8505 24.397 50.0308C24.5774 50.2111 24.8219 50.3124 25.077 50.3124H28.9231C29.1781 50.3124 29.4227 50.2111 29.603 50.0308C29.7833 49.8505 29.8846 49.6059 29.8846 49.3509C29.8846 49.0959 29.7833 48.8513 29.603 48.671C29.4227 48.4907 29.1781 48.3894 28.9231 48.3894ZM20.7693 28.75L21.3173 32.0288L25.3847 30.1827C25.6708 30.0546 25.9836 29.9973 26.2966 30.0157C26.6096 30.0342 26.9135 30.1277 27.1827 30.2884L29.6539 31.798L29.4808 30.4519C29.4493 30.1668 29.4814 29.8782 29.5749 29.607C29.6683 29.3358 29.8208 29.0888 30.0214 28.8836C30.2219 28.6785 30.4654 28.5204 30.7344 28.4208C31.0034 28.3212 31.2912 28.2826 31.5769 28.3077L34.5193 28.5865L34.8943 24.6538L33.4904 25.2307C33.2503 25.3281 32.9931 25.3761 32.734 25.372C32.475 25.3679 32.2194 25.3116 31.9826 25.2067C31.7457 25.1017 31.5324 24.9501 31.3553 24.761C31.1783 24.5719 31.0411 24.349 30.952 24.1057L29.8558 21.0865L27.7596 22.4231C27.4539 22.6177 27.0994 22.7218 26.737 22.7235C26.3746 22.7252 26.0191 22.6244 25.7116 22.4327L23.1154 20.8269C24.4202 26.2634 24.701 24.875 20.7693 28.75Z" fill="url(#paint2_linear_2001_83)"/>
<defs>
<linearGradient id="paint0_linear_2001_83" x1="27" y1="0.0769043" x2="27" y2="36.4615" gradientUnits="userSpaceOnUse">
<stop stop-color="#E60F71"/>
<stop offset="1" stop-color="#4B38DF"/>
</linearGradient>
<linearGradient id="paint1_linear_2001_83" x1="27" y1="29.3745" x2="27" y2="53.923" gradientUnits="userSpaceOnUse">
<stop stop-color="#E60F71"/>
<stop offset="1" stop-color="#4B38DF"/>
</linearGradient>
<linearGradient id="paint2_linear_2001_83" x1="27.8318" y1="20.8269" x2="27.8318" y2="50.3124" gradientUnits="userSpaceOnUse">
<stop stop-color="#E60F71"/>
<stop offset="1" stop-color="#4B38DF"/>
</linearGradient>
</defs>
</svg>
