<svg width="54" height="55" viewBox="0 0 54 55" fill="none" xmlns="http://www.w3.org/2000/svg">
<g clip-path="url(#clip0_7_213)">
<path d="M26.9916 17.2122C21.3181 17.2122 16.7026 21.8277 16.7026 27.5006C16.7026 33.1742 21.3181 37.7896 26.9916 37.7896C32.6647 37.7896 37.2801 33.1742 37.2801 27.5007C37.2801 21.8276 32.6647 17.2122 26.9916 17.2122ZM33.1001 25.5632L25.7292 32.934C25.5822 33.0814 25.4076 33.1983 25.2153 33.278C25.0229 33.3576 24.8168 33.3986 24.6086 33.3983C24.4005 33.3986 24.1944 33.3577 24.0022 33.278C23.81 33.1983 23.6354 33.0814 23.4885 32.934L20.6717 30.1172C20.0529 29.4988 20.0529 28.4956 20.6717 27.8768C21.29 27.2581 22.2933 27.2581 22.912 27.8768L24.6086 29.5734L30.8597 23.3228C31.4781 22.7039 32.4813 22.7039 33.1001 23.3228C33.7189 23.9412 33.7189 24.9444 33.1001 25.5632Z" fill="url(#paint0_linear_7_213)"/>
<path d="M49.9303 15.1513L49.9287 15.1093C49.9041 14.5503 49.8879 13.9909 49.8801 13.4313C49.836 10.4538 47.4691 7.99095 44.4913 7.82462C38.2826 7.47806 33.4797 5.45359 29.3759 1.45359L29.3409 1.42026C28.0023 0.192921 25.9832 0.192921 24.6442 1.42026L24.6092 1.45359C20.5054 5.45359 15.7025 7.47806 9.49384 7.82494C6.51646 7.99095 4.14911 10.454 4.10503 13.4316C4.09729 13.9911 4.08111 14.5504 4.05651 15.1093L4.05398 15.2069C3.93322 21.538 3.78324 29.4172 6.41911 36.5688C7.86857 40.5017 10.0636 43.9203 12.943 46.7305C16.2224 49.9308 20.5177 52.4716 25.7096 54.2818C25.8805 54.3413 26.0553 54.3889 26.2327 54.4243C26.4849 54.4746 26.7388 54.4997 26.9925 54.4997C27.2463 54.4997 27.5005 54.4746 27.7522 54.4243C27.9304 54.3886 28.1059 54.3407 28.2775 54.2809C33.4631 52.4674 37.754 49.9255 41.0305 46.7255C43.9087 43.9146 46.1038 40.4951 47.5544 36.5614C50.2002 29.3883 50.0506 21.4942 49.9303 15.1513ZM26.9917 40.9581C19.5709 40.9581 13.5341 34.9213 13.5341 27.5006C13.5341 20.0799 19.571 14.0431 26.9917 14.0431C34.412 14.0431 40.4493 20.0799 40.4493 27.5006C40.4493 34.9214 34.412 40.9581 26.9917 40.9581Z" fill="url(#paint1_linear_7_213)"/>
</g>
<defs>
<linearGradient id="paint0_linear_7_213" x1="26.9913" y1="17.2122" x2="26.9913" y2="37.7896" gradientUnits="userSpaceOnUse">
<stop stop-color="#E60F71"/>
<stop offset="1" stop-color="#4B38DF"/>
</linearGradient>
<linearGradient id="paint1_linear_7_213" x1="26.9919" y1="0.499756" x2="26.9919" y2="54.4997" gradientUnits="userSpaceOnUse">
<stop stop-color="#E60F71"/>
<stop offset="1" stop-color="#4B38DF"/>
</linearGradient>
<clipPath id="clip0_7_213">
<rect width="54" height="54" fill="white" transform="translate(0 0.5)"/>
</clipPath>
</defs>
</svg>
