<svg width="31" height="30" viewBox="0 0 31 30" fill="none" xmlns="http://www.w3.org/2000/svg">
<path d="M31 15C31 22.4871 25.3316 28.6928 17.9219 29.8178V19.3359H21.5335L22.2207 15H17.9219V12.1863C17.9219 10.9998 18.5225 9.84375 20.4479 9.84375H22.4023V6.15234C22.4023 6.15234 20.6283 5.85938 18.9324 5.85938C15.3922 5.85938 13.0781 7.93594 13.0781 11.6953V15H9.14258V19.3359H13.0781V29.8178C5.6684 28.6928 0 22.4871 0 15C0 6.71602 6.93988 0 15.5 0C24.0601 0 31 6.71602 31 15Z" fill="#1877F2"/>
<path d="M21.5335 19.3359L22.2207 15H17.9219V12.1863C17.9219 11 18.5224 9.84375 20.4478 9.84375H22.4023V6.15234C22.4023 6.15234 20.6286 5.85938 18.9327 5.85938C15.3922 5.85938 13.0781 7.93594 13.0781 11.6953V15H9.14258V19.3359H13.0781V29.8177C13.8673 29.9375 14.6761 30 15.5 30C16.3239 30 17.1327 29.9375 17.9219 29.8177V19.3359H21.5335Z" fill="white"/>
</svg>
