<svg width="17" height="17" viewBox="0 0 17 17" fill="none" xmlns="http://www.w3.org/2000/svg">
<path d="M4.04594 10.169L3.489 12.2481L1.45341 12.2912C0.845063 11.1628 0.5 9.87186 0.5 8.49999C0.5 7.17339 0.822625 5.92239 1.3945 4.82086H1.39494L3.20719 5.15311L4.00106 6.95449C3.83491 7.43889 3.74434 7.95889 3.74434 8.49999C3.74441 9.08724 3.85078 9.64989 4.04594 10.169Z" fill="#FBBB00"/>
<path d="M16.3602 7.00549C16.4521 7.48943 16.5 7.98921 16.5 8.49999C16.5 9.07274 16.4398 9.63143 16.3251 10.1703C15.9357 12.0042 14.9181 13.6055 13.5084 14.7387L13.508 14.7382L11.2253 14.6218L10.9023 12.6051C11.8377 12.0565 12.5687 11.198 12.9537 10.1703H8.6759V7.00549H16.3602Z" fill="#518EF8"/>
<path d="M13.5079 14.7383L13.5084 14.7387C12.1374 15.8407 10.3958 16.5 8.50002 16.5C5.45343 16.5 2.80465 14.7972 1.45343 12.2912L4.04596 10.169C4.72156 11.9721 6.4609 13.2556 8.50002 13.2556C9.37649 13.2556 10.1976 13.0187 10.9022 12.6051L13.5079 14.7383Z" fill="#28B446"/>
<path d="M13.6063 2.34175L11.0147 4.4635C10.2855 4.00769 9.42347 3.74437 8.49997 3.74437C6.41469 3.74437 4.64281 5.08678 4.00106 6.9545L1.39491 4.82088H1.39447C2.72591 2.25384 5.4081 0.5 8.49997 0.5C10.4411 0.5 12.2208 1.19144 13.6063 2.34175Z" fill="#F14336"/>
</svg>
