<svg width="31" height="30" viewBox="0 0 31 30" fill="none" xmlns="http://www.w3.org/2000/svg">
<path d="M15.5 0C6.94091 0 0 6.71701 0 15C0 23.283 6.94091 30 15.5 30C24.0591 30 31 23.283 31 15C31 6.71701 24.0591 0 15.5 0ZM23.276 11.4769V13.508C22.2864 13.5083 21.3249 13.3206 20.418 12.9504C19.8384 12.7139 19.2927 12.406 18.7947 12.0342L18.8096 18.2858C18.8033 19.6935 18.2278 21.0161 17.1862 22.0124C16.3386 22.8233 15.2645 23.339 14.1003 23.5059C13.8243 23.5455 13.5457 23.5653 13.2668 23.5652C12.0206 23.5652 10.8374 23.1745 9.86957 22.4537C9.68632 22.3171 9.51194 22.1697 9.34741 22.0124C8.21857 20.9327 7.63647 19.4694 7.7345 17.9299C7.80928 16.7581 8.29407 15.6405 9.10225 14.7646C10.1715 13.6055 11.6674 12.9622 13.2668 12.9622C13.5483 12.9622 13.8267 12.9826 14.1003 13.0218V15.8617C13.8342 15.7767 13.5557 15.7334 13.2754 15.7334C11.8142 15.7334 10.632 16.8871 10.6539 18.3023C10.6678 19.2077 11.1788 19.9992 11.9326 20.4355C12.2958 20.6463 12.7065 20.7682 13.1293 20.7907C13.4582 20.8084 13.7876 20.7661 14.1003 20.6661C15.1443 20.3323 15.8974 19.3833 15.8974 18.2641L15.9009 14.0777V6.43477H18.7911C18.7936 6.70663 18.8223 6.97768 18.877 7.24436C19.0952 8.30496 19.7129 9.22512 20.5727 9.85242C21.3224 10.3996 22.2559 10.724 23.2677 10.724C23.2683 10.724 23.2767 10.724 23.276 10.7234V11.4769H23.276Z" fill="black"/>
</svg>
