<svg width="22" height="22" viewBox="0 0 22 22" fill="none" xmlns="http://www.w3.org/2000/svg">
<path d="M11.0027 0H10.9973C4.93213 0 0 4.9335 0 11C0 13.4062 0.7755 15.6365 2.09413 17.4474L0.72325 21.5339L4.95138 20.1823C6.69075 21.3345 8.76562 22 11.0027 22C17.0679 22 22 17.0651 22 11C22 4.93488 17.0679 0 11.0027 0Z" fill="white"/>
<path d="M17.4034 15.5334C17.138 16.2828 16.0848 16.9043 15.2446 17.0858C14.6699 17.2081 13.9191 17.3058 11.3919 16.258C8.15926 14.9188 6.07751 11.6339 5.91526 11.4208C5.75988 11.2076 4.60901 9.68138 4.60901 8.10288C4.60901 6.52438 5.41063 5.75575 5.73376 5.42575C5.99913 5.15488 6.43776 5.03113 6.85851 5.03113C6.99463 5.03113 7.11701 5.038 7.22701 5.0435C7.55013 5.05725 7.71238 5.0765 7.92551 5.58663C8.19088 6.226 8.83713 7.8045 8.91413 7.96675C8.99251 8.129 9.07088 8.349 8.96088 8.56213C8.85776 8.78213 8.76701 8.87975 8.60476 9.06675C8.44251 9.25375 8.28851 9.39675 8.12626 9.5975C7.97776 9.77213 7.81001 9.95913 7.99701 10.2823C8.18401 10.5985 8.83026 11.6531 9.78176 12.5001C11.0096 13.5933 12.0051 13.9425 12.3613 14.091C12.6266 14.201 12.9429 14.1749 13.1368 13.9686C13.3829 13.7033 13.6868 13.2633 13.9961 12.8301C14.2161 12.5194 14.4939 12.4809 14.7854 12.5909C15.0824 12.694 16.654 13.4709 16.9771 13.6318C17.3003 13.794 17.5134 13.871 17.5918 14.0071C17.6688 14.1433 17.6688 14.7826 17.4034 15.5334Z" fill="#4CAF50"/>
</svg>
